<svg><defs>
<svg id="BTC" xmlns="http://www.w3.org/2000/svg" viewBox="0 0 384 512"><path d="M310.204 242.638c27.73-14.18 45.377-39.39 41.28-81.3-5.358-57.351-52.458-76.573-114.85-81.929V0h-48.528v77.203c-12.605 0-25.525.315-38.444.63V0h-48.528v79.409c-17.842.539-38.622.276-97.37 0v51.678c38.314-.678 58.417-3.14 63.023 21.427v217.429c-2.925 19.492-18.524 16.685-53.255 16.071L3.765 443.68c88.481 0 97.37.315 97.37.315V512h48.528v-67.06c13.234.315 26.154.315 38.444.315V512h48.528v-68.005c81.299-4.412 135.647-24.894 142.895-101.467 5.671-61.446-23.32-88.862-69.326-99.89zM150.608 134.553c27.415 0 113.126-8.507 113.126 48.528 0 54.515-85.71 48.212-113.126 48.212v-96.74zm0 251.776V279.821c32.772 0 133.127-9.138 133.127 53.255-.001 60.186-100.355 53.253-133.127 53.253z"/></svg>
<svg id="USD" xmlns="http://www.w3.org/2000/svg" viewBox="0 0 288 512"><path d="M209.2 233.4l-108-31.6C88.7 198.2 80 186.5 80 173.5c0-16.3 13.2-29.5 29.5-29.5h66.3c12.2 0 24.2 3.7 34.2 10.5 6.1 4.1 14.3 3.1 19.5-2l34.8-34c7.1-6.9 6.1-18.4-1.8-24.5C238 74.8 207.4 64.1 176 64V16c0-8.8-7.2-16-16-16h-32c-8.8 0-16 7.2-16 16v48h-2.5C45.8 64-5.4 118.7.5 183.6c4.2 46.1 39.4 83.6 83.8 96.6l102.5 30c12.5 3.7 21.2 15.3 21.2 28.3 0 16.3-13.2 29.5-29.5 29.5h-66.3C100 368 88 364.3 78 357.5c-6.1-4.1-14.3-3.1-19.5 2l-34.8 34c-7.1 6.9-6.1 18.4 1.8 24.5 24.5 19.2 55.1 29.9 86.5 30v48c0 8.8 7.2 16 16 16h32c8.8 0 16-7.2 16-16v-48.2c46.6-.9 90.3-28.6 105.7-72.7 21.5-61.6-14.6-124.8-72.5-141.7z"/></svg>
<svg id="EUR" xmlns="http://www.w3.org/2000/svg" viewBox="0 0 320 512"><path d="M310.706 413.765c-1.314-6.63-7.835-10.872-14.424-9.369-10.692 2.439-27.422 5.413-45.426 5.413-56.763 0-101.929-34.79-121.461-85.449h113.689a12 12 0 0 0 11.708-9.369l6.373-28.36c1.686-7.502-4.019-14.631-11.708-14.631H115.22c-1.21-14.328-1.414-28.287.137-42.245H261.95a12 12 0 0 0 11.723-9.434l6.512-29.755c1.638-7.484-4.061-14.566-11.723-14.566H130.184c20.633-44.991 62.69-75.03 117.619-75.03 14.486 0 28.564 2.25 37.851 4.145 6.216 1.268 12.347-2.498 14.002-8.623l11.991-44.368c1.822-6.741-2.465-13.616-9.326-14.917C290.217 34.912 270.71 32 249.635 32 152.451 32 74.03 92.252 45.075 176H12c-6.627 0-12 5.373-12 12v29.755c0 6.627 5.373 12 12 12h21.569c-1.009 13.607-1.181 29.287-.181 42.245H12c-6.627 0-12 5.373-12 12v28.36c0 6.627 5.373 12 12 12h30.114C67.139 414.692 145.264 480 249.635 480c26.301 0 48.562-4.544 61.101-7.788 6.167-1.595 10.027-7.708 8.788-13.957l-8.818-44.49z"/></svg>
<svg id="LIR" xmlns="http://www.w3.org/2000/svg" viewBox="0 0 384 512"><path d="M371.994 256h-48.019C317.64 256 312 260.912 312 267.246 312 368 230.179 416 144 416V256.781l134.603-29.912A12 12 0 0 0 288 215.155v-40.976c0-7.677-7.109-13.38-14.603-11.714L144 191.219V160.78l134.603-29.912A12 12 0 0 0 288 119.154V78.179c0-7.677-7.109-13.38-14.603-11.714L144 95.219V44c0-6.627-5.373-12-12-12H76c-6.627 0-12 5.373-12 12v68.997L9.397 125.131A12 12 0 0 0 0 136.845v40.976c0 7.677 7.109 13.38 14.603 11.714L64 178.558v30.439L9.397 221.131A12 12 0 0 0 0 232.845v40.976c0 7.677 7.109 13.38 14.603 11.714L64 274.558V468c0 6.627 5.373 12 12 12h79.583c134.091 0 223.255-77.834 228.408-211.592.261-6.782-5.211-12.408-11.997-12.408z"/></svg>
<svg id="PERCENT" xmlns="http://www.w3.org/2000/svg" viewBox="0 0 448 512"><path d="M112 224c61.9 0 112-50.1 112-112S173.9 0 112 0 0 50.1 0 112s50.1 112 112 112zm0-160c26.5 0 48 21.5 48 48s-21.5 48-48 48-48-21.5-48-48 21.5-48 48-48zm224 224c-61.9 0-112 50.1-112 112s50.1 112 112 112 112-50.1 112-112-50.1-112-112-112zm0 160c-26.5 0-48-21.5-48-48s21.5-48 48-48 48 21.5 48 48-21.5 48-48 48zM392.3.2l31.6-.1c19.4-.1 30.9 21.8 19.7 37.8L77.4 501.6a23.95 23.95 0 0 1-19.6 10.2l-33.4.1c-19.5 0-30.9-21.9-19.7-37.8l368-463.7C377.2 4 384.5.2 392.3.2z"/></svg>
<svg id="GBP" xmlns="http://www.w3.org/2000/svg" viewBox="0 0 320 512"><path d="M308 352h-45.495c-6.627 0-12 5.373-12 12v50.848H128V288h84c6.627 0 12-5.373 12-12v-40c0-6.627-5.373-12-12-12h-84v-63.556c0-32.266 24.562-57.086 61.792-57.086 23.658 0 45.878 11.505 57.652 18.849 5.151 3.213 11.888 2.051 15.688-2.685l28.493-35.513c4.233-5.276 3.279-13.005-2.119-17.081C273.124 54.56 236.576 32 187.931 32 106.026 32 48 84.742 48 157.961V224H20c-6.627 0-12 5.373-12 12v40c0 6.627 5.373 12 12 12h28v128H12c-6.627 0-12 5.373-12 12v40c0 6.627 5.373 12 12 12h296c6.627 0 12-5.373 12-12V364c0-6.627-5.373-12-12-12z"/></svg>
<svg id="INR" xmlns="http://www.w3.org/2000/svg" viewBox="0 0 320 512"><path d="M308 96c6.627 0 12-5.373 12-12V44c0-6.627-5.373-12-12-12H12C5.373 32 0 37.373 0 44v44.748c0 6.627 5.373 12 12 12h85.28c27.308 0 48.261 9.958 60.97 27.252H12c-6.627 0-12 5.373-12 12v40c0 6.627 5.373 12 12 12h158.757c-6.217 36.086-32.961 58.632-74.757 58.632H12c-6.627 0-12 5.373-12 12v53.012c0 3.349 1.4 6.546 3.861 8.818l165.052 152.356a12.001 12.001 0 0 0 8.139 3.182h82.562c10.924 0 16.166-13.408 8.139-20.818L116.871 319.906c76.499-2.34 131.144-53.395 138.318-127.906H308c6.627 0 12-5.373 12-12v-40c0-6.627-5.373-12-12-12h-58.69c-3.486-11.541-8.28-22.246-14.252-32H308z"/></svg>
<svg id="ILS" xmlns="http://www.w3.org/2000/svg" viewBox="0 0 448 512"><path d="M248 168v168c0 8.84 7.16 16 16 16h48c8.84 0 16-7.16 16-16V168c0-75.11-60.89-136-136-136H24C10.75 32 0 42.74 0 56v408c0 8.84 7.16 16 16 16h48c8.84 0 16-7.16 16-16V112h112c30.93 0 56 25.07 56 56zM432 32h-48c-8.84 0-16 7.16-16 16v296c0 30.93-25.07 56-56 56H200V176c0-8.84-7.16-16-16-16h-48c-8.84 0-16 7.16-16 16v280c0 13.25 10.75 24 24 24h168c75.11 0 136-60.89 136-136V48c0-8.84-7.16-16-16-16z"/></svg>
<svg id="KRW" xmlns="http://www.w3.org/2000/svg" viewBox="0 0 576 512"><path d="M564 192c6.627 0 12-5.373 12-12v-40c0-6.627-5.373-12-12-12h-48.028l18.572-80.61c1.732-7.518-3.978-14.694-11.693-14.694h-46.107a11.998 11.998 0 0 0-11.736 9.5L450.73 128H340.839l-19.725-85.987a12 12 0 0 0-11.696-9.317H265.43a12 12 0 0 0-11.687 9.277L233.696 128H124.975L107.5 42.299a12 12 0 0 0-11.758-9.602H53.628c-7.686 0-13.39 7.124-11.709 14.624L60 128H12c-6.627 0-12 5.373-12 12v40c0 6.627 5.373 12 12 12h62.342l7.171 32H12c-6.627 0-12 5.373-12 12v40c0 6.627 5.373 12 12 12h83.856l40.927 182.624A12 12 0 0 0 148.492 480h56.767c5.583 0 10.428-3.85 11.689-9.288L259.335 288h55.086l42.386 182.712A12 12 0 0 0 368.496 480h56.826a12 12 0 0 0 11.694-9.306L479.108 288H564c6.627 0 12-5.373 12-12v-40c0-6.627-5.373-12-12-12h-70.146l7.373-32H564zm-425.976 0h80.757l-7.457 32h-66.776l-6.524-32zm45.796 150.029c-6.194 25.831-6.758 47.25-7.321 47.25h-1.126s-1.689-22.05-6.758-47.25L157.599 288h38.812l-12.591 54.029zM274.182 224l1.996-8.602c1.856-7.962 3.457-15.968 4.803-23.398h11.794c1.347 7.43 2.947 15.436 4.803 23.398l1.996 8.602h-25.392zm130.959 118.029c-5.068 25.2-6.758 47.25-6.758 47.25h-1.126c-.563 0-1.126-21.42-7.321-47.25L377.542 288h39.107l-11.508 54.029zM430.281 224h-67.42l-7.34-32h81.577l-6.817 32z"/></svg>
<svg id="JPY" xmlns="http://www.w3.org/2000/svg" viewBox="0 0 384 512"><path d="M351.208 32h-65.277a12 12 0 0 0-10.778 6.724l-55.39 113.163c-14.513 34.704-27.133 71.932-27.133 71.932h-1.262s-12.62-37.228-27.133-71.932l-55.39-113.163A11.997 11.997 0 0 0 98.068 32H32.792c-9.057 0-14.85 9.65-10.59 17.643L102.322 200H44c-6.627 0-12 5.373-12 12v32c0 6.627 5.373 12 12 12h88.162L152 293.228V320H44c-6.627 0-12 5.373-12 12v32c0 6.627 5.373 12 12 12h108v92c0 6.627 5.373 12 12 12h56c6.627 0 12-5.373 12-12v-92h108c6.627 0 12-5.373 12-12v-32c0-6.627-5.373-12-12-12H232v-26.772L251.838 256H340c6.627 0 12-5.373 12-12v-32c0-6.627-5.373-12-12-12h-58.322l80.12-150.357C366.058 41.65 360.266 32 351.208 32z"/></svg>
</defs></svg>
