<svg>
	<defs>
		<svg id="BTC" xmlns="http://www.w3.org/2000/svg" viewBox="0 0 384 512">
			<path d="M310.204 242.638c27.73-14.18 45.377-39.39 41.28-81.3-5.358-57.351-52.458-76.573-114.85-81.929V0h-48.528v77.203c-12.605 0-25.525.315-38.444.63V0h-48.528v79.409c-17.842.539-38.622.276-97.37 0v51.678c38.314-.678 58.417-3.14 63.023 21.427v217.429c-2.925 19.492-18.524 16.685-53.255 16.071L3.765 443.68c88.481 0 97.37.315 97.37.315V512h48.528v-67.06c13.234.315 26.154.315 38.444.315V512h48.528v-68.005c81.299-4.412 135.647-24.894 142.895-101.467 5.671-61.446-23.32-88.862-69.326-99.89zM150.608 134.553c27.415 0 113.126-8.507 113.126 48.528 0 54.515-85.71 48.212-113.126 48.212v-96.74zm0 251.776V279.821c32.772 0 133.127-9.138 133.127 53.255-.001 60.186-100.355 53.253-133.127 53.253z" />
		</svg>
		<svg id="USD" xmlns="http://www.w3.org/2000/svg" viewBox="0 0 288 512">
			<path d="M209.2 233.4l-108-31.6C88.7 198.2 80 186.5 80 173.5c0-16.3 13.2-29.5 29.5-29.5h66.3c12.2 0 24.2 3.7 34.2 10.5 6.1 4.1 14.3 3.1 19.5-2l34.8-34c7.1-6.9 6.1-18.4-1.8-24.5C238 74.8 207.4 64.1 176 64V16c0-8.8-7.2-16-16-16h-32c-8.8 0-16 7.2-16 16v48h-2.5C45.8 64-5.4 118.7.5 183.6c4.2 46.1 39.4 83.6 83.8 96.6l102.5 30c12.5 3.7 21.2 15.3 21.2 28.3 0 16.3-13.2 29.5-29.5 29.5h-66.3C100 368 88 364.3 78 357.5c-6.1-4.1-14.3-3.1-19.5 2l-34.8 34c-7.1 6.9-6.1 18.4 1.8 24.5 24.5 19.2 55.1 29.9 86.5 30v48c0 8.8 7.2 16 16 16h32c8.8 0 16-7.2 16-16v-48.2c46.6-.9 90.3-28.6 105.7-72.7 21.5-61.6-14.6-124.8-72.5-141.7z" />
		</svg>
		<svg id="EUR" xmlns="http://www.w3.org/2000/svg" viewBox="0 0 320 512">
			<path d="M310.706 413.765c-1.314-6.63-7.835-10.872-14.424-9.369-10.692 2.439-27.422 5.413-45.426 5.413-56.763 0-101.929-34.79-121.461-85.449h113.689a12 12 0 0 0 11.708-9.369l6.373-28.36c1.686-7.502-4.019-14.631-11.708-14.631H115.22c-1.21-14.328-1.414-28.287.137-42.245H261.95a12 12 0 0 0 11.723-9.434l6.512-29.755c1.638-7.484-4.061-14.566-11.723-14.566H130.184c20.633-44.991 62.69-75.03 117.619-75.03 14.486 0 28.564 2.25 37.851 4.145 6.216 1.268 12.347-2.498 14.002-8.623l11.991-44.368c1.822-6.741-2.465-13.616-9.326-14.917C290.217 34.912 270.71 32 249.635 32 152.451 32 74.03 92.252 45.075 176H12c-6.627 0-12 5.373-12 12v29.755c0 6.627 5.373 12 12 12h21.569c-1.009 13.607-1.181 29.287-.181 42.245H12c-6.627 0-12 5.373-12 12v28.36c0 6.627 5.373 12 12 12h30.114C67.139 414.692 145.264 480 249.635 480c26.301 0 48.562-4.544 61.101-7.788 6.167-1.595 10.027-7.708 8.788-13.957l-8.818-44.49z" />
		</svg>
		<svg id="LIR" xmlns="http://www.w3.org/2000/svg" viewBox="0 0 384 512">
			<path d="M371.994 256h-48.019C317.64 256 312 260.912 312 267.246 312 368 230.179 416 144 416V256.781l134.603-29.912A12 12 0 0 0 288 215.155v-40.976c0-7.677-7.109-13.38-14.603-11.714L144 191.219V160.78l134.603-29.912A12 12 0 0 0 288 119.154V78.179c0-7.677-7.109-13.38-14.603-11.714L144 95.219V44c0-6.627-5.373-12-12-12H76c-6.627 0-12 5.373-12 12v68.997L9.397 125.131A12 12 0 0 0 0 136.845v40.976c0 7.677 7.109 13.38 14.603 11.714L64 178.558v30.439L9.397 221.131A12 12 0 0 0 0 232.845v40.976c0 7.677 7.109 13.38 14.603 11.714L64 274.558V468c0 6.627 5.373 12 12 12h79.583c134.091 0 223.255-77.834 228.408-211.592.261-6.782-5.211-12.408-11.997-12.408z" />
		</svg>
		<svg id="PERCENT" xmlns="http://www.w3.org/2000/svg" viewBox="0 0 448 512">
			<path d="M112 224c61.9 0 112-50.1 112-112S173.9 0 112 0 0 50.1 0 112s50.1 112 112 112zm0-160c26.5 0 48 21.5 48 48s-21.5 48-48 48-48-21.5-48-48 21.5-48 48-48zm224 224c-61.9 0-112 50.1-112 112s50.1 112 112 112 112-50.1 112-112-50.1-112-112-112zm0 160c-26.5 0-48-21.5-48-48s21.5-48 48-48 48 21.5 48 48-21.5 48-48 48zM392.3.2l31.6-.1c19.4-.1 30.9 21.8 19.7 37.8L77.4 501.6a23.95 23.95 0 0 1-19.6 10.2l-33.4.1c-19.5 0-30.9-21.9-19.7-37.8l368-463.7C377.2 4 384.5.2 392.3.2z" />
		</svg>
		<svg id="GBP" xmlns="http://www.w3.org/2000/svg" viewBox="0 0 320 512">
			<path d="M308 352h-45.495c-6.627 0-12 5.373-12 12v50.848H128V288h84c6.627 0 12-5.373 12-12v-40c0-6.627-5.373-12-12-12h-84v-63.556c0-32.266 24.562-57.086 61.792-57.086 23.658 0 45.878 11.505 57.652 18.849 5.151 3.213 11.888 2.051 15.688-2.685l28.493-35.513c4.233-5.276 3.279-13.005-2.119-17.081C273.124 54.56 236.576 32 187.931 32 106.026 32 48 84.742 48 157.961V224H20c-6.627 0-12 5.373-12 12v40c0 6.627 5.373 12 12 12h28v128H12c-6.627 0-12 5.373-12 12v40c0 6.627 5.373 12 12 12h296c6.627 0 12-5.373 12-12V364c0-6.627-5.373-12-12-12z" />
		</svg>
		<svg id="INR" xmlns="http://www.w3.org/2000/svg" viewBox="0 0 320 512">
			<path d="M308 96c6.627 0 12-5.373 12-12V44c0-6.627-5.373-12-12-12H12C5.373 32 0 37.373 0 44v44.748c0 6.627 5.373 12 12 12h85.28c27.308 0 48.261 9.958 60.97 27.252H12c-6.627 0-12 5.373-12 12v40c0 6.627 5.373 12 12 12h158.757c-6.217 36.086-32.961 58.632-74.757 58.632H12c-6.627 0-12 5.373-12 12v53.012c0 3.349 1.4 6.546 3.861 8.818l165.052 152.356a12.001 12.001 0 0 0 8.139 3.182h82.562c10.924 0 16.166-13.408 8.139-20.818L116.871 319.906c76.499-2.34 131.144-53.395 138.318-127.906H308c6.627 0 12-5.373 12-12v-40c0-6.627-5.373-12-12-12h-58.69c-3.486-11.541-8.28-22.246-14.252-32H308z" />
		</svg>
		<svg id="ILS" xmlns="http://www.w3.org/2000/svg" viewBox="0 0 448 512">
			<path d="M248 168v168c0 8.84 7.16 16 16 16h48c8.84 0 16-7.16 16-16V168c0-75.11-60.89-136-136-136H24C10.75 32 0 42.74 0 56v408c0 8.84 7.16 16 16 16h48c8.84 0 16-7.16 16-16V112h112c30.93 0 56 25.07 56 56zM432 32h-48c-8.84 0-16 7.16-16 16v296c0 30.93-25.07 56-56 56H200V176c0-8.84-7.16-16-16-16h-48c-8.84 0-16 7.16-16 16v280c0 13.25 10.75 24 24 24h168c75.11 0 136-60.89 136-136V48c0-8.84-7.16-16-16-16z" />
		</svg>
		<svg id="KRW" xmlns="http://www.w3.org/2000/svg" viewBox="0 0 576 512">
			<path d="M564 192c6.627 0 12-5.373 12-12v-40c0-6.627-5.373-12-12-12h-48.028l18.572-80.61c1.732-7.518-3.978-14.694-11.693-14.694h-46.107a11.998 11.998 0 0 0-11.736 9.5L450.73 128H340.839l-19.725-85.987a12 12 0 0 0-11.696-9.317H265.43a12 12 0 0 0-11.687 9.277L233.696 128H124.975L107.5 42.299a12 12 0 0 0-11.758-9.602H53.628c-7.686 0-13.39 7.124-11.709 14.624L60 128H12c-6.627 0-12 5.373-12 12v40c0 6.627 5.373 12 12 12h62.342l7.171 32H12c-6.627 0-12 5.373-12 12v40c0 6.627 5.373 12 12 12h83.856l40.927 182.624A12 12 0 0 0 148.492 480h56.767c5.583 0 10.428-3.85 11.689-9.288L259.335 288h55.086l42.386 182.712A12 12 0 0 0 368.496 480h56.826a12 12 0 0 0 11.694-9.306L479.108 288H564c6.627 0 12-5.373 12-12v-40c0-6.627-5.373-12-12-12h-70.146l7.373-32H564zm-425.976 0h80.757l-7.457 32h-66.776l-6.524-32zm45.796 150.029c-6.194 25.831-6.758 47.25-7.321 47.25h-1.126s-1.689-22.05-6.758-47.25L157.599 288h38.812l-12.591 54.029zM274.182 224l1.996-8.602c1.856-7.962 3.457-15.968 4.803-23.398h11.794c1.347 7.43 2.947 15.436 4.803 23.398l1.996 8.602h-25.392zm130.959 118.029c-5.068 25.2-6.758 47.25-6.758 47.25h-1.126c-.563 0-1.126-21.42-7.321-47.25L377.542 288h39.107l-11.508 54.029zM430.281 224h-67.42l-7.34-32h81.577l-6.817 32z" />
		</svg>
		<svg id="JPY" xmlns="http://www.w3.org/2000/svg" viewBox="0 0 384 512">
			<path d="M351.208 32h-65.277a12 12 0 0 0-10.778 6.724l-55.39 113.163c-14.513 34.704-27.133 71.932-27.133 71.932h-1.262s-12.62-37.228-27.133-71.932l-55.39-113.163A11.997 11.997 0 0 0 98.068 32H32.792c-9.057 0-14.85 9.65-10.59 17.643L102.322 200H44c-6.627 0-12 5.373-12 12v32c0 6.627 5.373 12 12 12h88.162L152 293.228V320H44c-6.627 0-12 5.373-12 12v32c0 6.627 5.373 12 12 12h108v92c0 6.627 5.373 12 12 12h56c6.627 0 12-5.373 12-12v-92h108c6.627 0 12-5.373 12-12v-32c0-6.627-5.373-12-12-12H232v-26.772L251.838 256H340c6.627 0 12-5.373 12-12v-32c0-6.627-5.373-12-12-12h-58.322l80.12-150.357C366.058 41.65 360.266 32 351.208 32z" />
		</svg>
		<svg id="add" version="1.1" xmlns="http://www.w3.org/2000/svg" xmlns:xlink="http://www.w3.org/1999/xlink" x="0px" y="0px" width="24px" height="24px" viewBox="0 0 24 24" enable-background="new 0 0 24 24" xml:space="preserve">
			<g id="Bounding_Boxes">
				<g id="ui_x5F_spec_x5F_header_copy_3" display="none">
				</g>
				<path fill="none" d="M0,0h24v24H0V0z" />
			</g>
			<g id="Outline">
				<g id="ui_x5F_spec_x5F_header" display="none">
				</g>
				<path d="M19,13h-6v6h-2v-6H5v-2h6V5h2v6h6V13z" />
			</g>
		</svg>
		<svg id="keyboard_arrow_left" version="1.1" xmlns="http://www.w3.org/2000/svg" xmlns:xlink="http://www.w3.org/1999/xlink" x="0px" y="0px" width="24px" height="24px" viewBox="0 0 24 24" enable-background="new 0 0 24 24" xml:space="preserve">
			<g id="Bounding_Boxes">
				<g id="ui_x5F_spec_x5F_header_copy_3">
				</g>
				<path fill="none" d="M0,0h24v24H0V0z" />
			</g>
			<g id="Outline">
				<g id="ui_x5F_spec_x5F_header">
				</g>
				<path d="M15.41,16.59L10.83,12l4.58-4.59L14,6l-6,6l6,6L15.41,16.59z" />
			</g>
		</svg>
		<svg id="keyboard_arrow_right" version="1.1" xmlns="http://www.w3.org/2000/svg" xmlns:xlink="http://www.w3.org/1999/xlink" x="0px" y="0px" width="24px" height="24px" viewBox="0 0 24 24" enable-background="new 0 0 24 24" xml:space="preserve">
			<path d="M8.59,16.59L13.17,12L8.59,7.41L10,6l6,6l-6,6L8.59,16.59z" />
			<path fill="none" d="M0,0h24v24H0V0z" />
		</svg>
		<svg id="keyboard_arrow_down" version="1.1" xmlns="http://www.w3.org/2000/svg" xmlns:xlink="http://www.w3.org/1999/xlink" x="0px" y="0px" width="24px" height="24px" viewBox="0 0 24 24" enable-background="new 0 0 24 24" xml:space="preserve">
			<path d="M7.41,8.59L12,13.17l4.59-4.58L18,10l-6,6l-6-6L7.41,8.59z" />
			<path fill="none" d="M0,0h24v24H0V0z" />
		</svg>
		<svg id="keyboard_arrow_up" xmlns="http://www.w3.org/2000/svg" width="24" height="24" viewBox="0 0 24 24">
			<path d="M7.41 15.41L12 10.83l4.59 4.58L18 14l-6-6-6 6z" />
			<path d="M0 0h24v24H0z" fill="none" />
		</svg>
		<svg id="today" xmlns="http://www.w3.org/2000/svg" width="24" height="24" viewBox="0 0 24 24">
			<path d="M0 0h24v24H0z" fill="none" />
			<path d="M19 3h-1V1h-2v2H8V1H6v2H5c-1.11 0-1.99.9-1.99 2L3 19c0 1.1.89 2 2 2h14c1.1 0 2-.9 2-2V5c0-1.1-.9-2-2-2zm0 16H5V8h14v11zM7 10h5v5H7z" />
		</svg>
		<svg id="visibility" xmlns="http://www.w3.org/2000/svg" width="24" height="24" viewBox="0 0 24 24">
			<path d="M0 0h24v24H0z" fill="none" />
			<path d="M12 4.5C7 4.5 2.73 7.61 1 12c1.73 4.39 6 7.5 11 7.5s9.27-3.11 11-7.5c-1.73-4.39-6-7.5-11-7.5zM12 17c-2.76 0-5-2.24-5-5s2.24-5 5-5 5 2.24 5 5-2.24 5-5 5zm0-8c-1.66 0-3 1.34-3 3s1.34 3 3 3 3-1.34 3-3-1.34-3-3-3z" />
		</svg>
		<svg id="visibility_off" xmlns="http://www.w3.org/2000/svg" width="24" height="24" viewBox="0 0 24 24">
			<path d="M0 0h24v24H0zm0 0h24v24H0zm0 0h24v24H0zm0 0h24v24H0z" fill="none" />
			<path d="M12 7c2.76 0 5 2.24 5 5 0 .65-.13 1.26-.36 1.83l2.92 2.92c1.51-1.26 2.7-2.89 3.43-4.75-1.73-4.39-6-7.5-11-7.5-1.4 0-2.74.25-3.98.7l2.16 2.16C10.74 7.13 11.35 7 12 7zM2 4.27l2.28 2.28.46.46C3.08 8.3 1.78 10.02 1 12c1.73 4.39 6 7.5 11 7.5 1.55 0 3.03-.3 4.38-.84l.42.42L19.73 22 21 20.73 3.27 3 2 4.27zM7.53 9.8l1.55 1.55c-.05.21-.08.43-.08.65 0 1.66 1.34 3 3 3 .22 0 .44-.03.65-.08l1.55 1.55c-.67.33-1.41.53-2.2.53-2.76 0-5-2.24-5-5 0-.79.2-1.53.53-2.2zm4.31-.78l3.15 3.15.02-.16c0-1.66-1.34-3-3-3l-.17.01z" />
		</svg>
		<svg id="more_vert" xmlns="http://www.w3.org/2000/svg" width="24" height="24" viewBox="0 0 24 24">
			<path d="M0 0h24v24H0z" fill="none" />
			<path d="M12 8c1.1 0 2-.9 2-2s-.9-2-2-2-2 .9-2 2 .9 2 2 2zm0 2c-1.1 0-2 .9-2 2s.9 2 2 2 2-.9 2-2-.9-2-2-2zm0 6c-1.1 0-2 .9-2 2s.9 2 2 2 2-.9 2-2-.9-2-2-2z" />
		</svg>
		<svg id="filter_list" xmlns="http://www.w3.org/2000/svg" width="24" height="24" viewBox="0 0 24 24">
			<path d="M10 18h4v-2h-4v2zM3 6v2h18V6H3zm3 7h12v-2H6v2z" />
			<path d="M0 0h24v24H0z" fill="none" />
		</svg>
		<svg id="power_settings_new" xmlns="http://www.w3.org/2000/svg" width="24" height="24" viewBox="0 0 24 24">
			<path fill="none" d="M0 0h24v24H0z" />
			<path d="M13 3h-2v10h2V3zm4.83 2.17l-1.42 1.42C17.99 7.86 19 9.81 19 12c0 3.87-3.13 7-7 7s-7-3.13-7-7c0-2.19 1.01-4.14 2.58-5.42L6.17 5.17C4.23 6.82 3 9.26 3 12c0 4.97 4.03 9 9 9s9-4.03 9-9c0-2.74-1.23-5.18-3.17-6.83z" />
		</svg>
		<svg id="settings" xmlns="http://www.w3.org/2000/svg" width="20" height="20" viewBox="0 0 20 20">
			<path fill="none" d="M0 0h20v20H0V0z" />
			<path d="M15.95 10.78c.03-.25.05-.51.05-.78s-.02-.53-.06-.78l1.69-1.32c.15-.12.19-.34.1-.51l-1.6-2.77c-.1-.18-.31-.24-.49-.18l-1.99.8c-.42-.32-.86-.58-1.35-.78L12 2.34c-.03-.2-.2-.34-.4-.34H8.4c-.2 0-.36.14-.39.34l-.3 2.12c-.49.2-.94.47-1.35.78l-1.99-.8c-.18-.07-.39 0-.49.18l-1.6 2.77c-.1.18-.06.39.1.51l1.69 1.32c-.04.25-.07.52-.07.78s.02.53.06.78L2.37 12.1c-.15.12-.19.34-.1.51l1.6 2.77c.1.18.31.24.49.18l1.99-.8c.42.32.86.58 1.35.78l.3 2.12c.04.2.2.34.4.34h3.2c.2 0 .37-.14.39-.34l.3-2.12c.49-.2.94-.47 1.35-.78l1.99.8c.18.07.39 0 .49-.18l1.6-2.77c.1-.18.06-.39-.1-.51l-1.67-1.32zM10 13c-1.65 0-3-1.35-3-3s1.35-3 3-3 3 1.35 3 3-1.35 3-3 3z" />
		</svg>
		<svg id="drag_handle" xmlns="http://www.w3.org/2000/svg" xmlns:xlink="http://www.w3.org/1999/xlink" width="24" height="24" viewBox="0 0 24 24">
			<defs>
				<path id="a" d="M0 0h24v24H0V0z" />
			</defs>
			<clipPath id="b">
				<use xlink:href="#a" overflow="visible" />
			</clipPath>
			<path clip-path="url(#b)" d="M20 9H4v2h16V9zM4 15h16v-2H4v2z" />
		</svg>
		<svg id="first_page" version="1.1" xmlns="http://www.w3.org/2000/svg" xmlns:xlink="http://www.w3.org/1999/xlink" x="0px" y="0px" width="24px" height="24px" viewBox="0 0 24 24" enable-background="new 0 0 24 24" xml:space="preserve">
			<g id="Bounding_Boxes">
				<path opacity="0.87" fill="none" d="M24,0v24H0V0H24z" />
			</g>
			<g id="Outline_1_">
				<path d="M18.41,16.59L13.82,12l4.59-4.59L17,6l-6,6l6,6L18.41,16.59z M6,6h2v12H6V6z" />
			</g>
		</svg>
		<svg id="last_page" version="1.1" xmlns="http://www.w3.org/2000/svg" xmlns:xlink="http://www.w3.org/1999/xlink" x="0px" y="0px" width="24px" height="24px" viewBox="0 0 24 24" enable-background="new 0 0 24 24" xml:space="preserve">
			<g id="Bounding_Boxes">
				<path opacity="0.87" fill="none" d="M0,0h24v24H0V0z" />
			</g>
			<g id="Outline_1_">
				<path d="M5.59,7.41L10.18,12l-4.59,4.59L7,18l6-6L7,6L5.59,7.41z M16,6h2v12h-2V6z" />
			</g>
		</svg>
		<svg id="menu" xmlns="http://www.w3.org/2000/svg" width="24" height="24" viewBox="0 0 24 24">
			<path d="M0 0h24v24H0z" fill="none" />
			<path d="M3 18h18v-2H3v2zm0-5h18v-2H3v2zm0-7v2h18V6H3z" />
		</svg>
		<svg id="delete" xmlns="http://www.w3.org/2000/svg" width="24" height="24" viewBox="0 0 24 24">
			<path d="M6 19c0 1.1.9 2 2 2h8c1.1 0 2-.9 2-2V7H6v12zM19 4h-3.5l-1-1h-5l-1 1H5v2h14V4z" />
			<path d="M0 0h24v24H0z" fill="none" />
		</svg>
		<svg id="edit" xmlns="http://www.w3.org/2000/svg" width="24" height="24" viewBox="0 0 24 24">
			<path d="M3 17.25V21h3.75L17.81 9.94l-3.75-3.75L3 17.25zM20.71 7.04c.39-.39.39-1.02 0-1.41l-2.34-2.34c-.39-.39-1.02-.39-1.41 0l-1.83 1.83 3.75 3.75 1.83-1.83z" />
			<path d="M0 0h24v24H0z" fill="none" />
		</svg>
		<svg id="save" xmlns="http://www.w3.org/2000/svg" width="24" height="24" viewBox="0 0 24 24">
			<path d="M0 0h24v24H0z" fill="none" />
			<path d="M17 3H5c-1.11 0-2 .9-2 2v14c0 1.1.89 2 2 2h14c1.1 0 2-.9 2-2V7l-4-4zm-5 16c-1.66 0-3-1.34-3-3s1.34-3 3-3 3 1.34 3 3-1.34 3-3 3zm3-10H5V5h10v4z" />
		</svg>
		<svg id="clear" xmlns="http://www.w3.org/2000/svg" width="24" height="24" viewBox="0 0 24 24">
			<path d="M19 6.41L17.59 5 12 10.59 6.41 5 5 6.41 10.59 12 5 17.59 6.41 19 12 13.41 17.59 19 19 17.59 13.41 12z" />
			<path d="M0 0h24v24H0z" fill="none" />
		</svg>
		<svg id="done" xmlns="http://www.w3.org/2000/svg" width="24" height="24" viewBox="0 0 24 24">
			<path fill="none" d="M0 0h24v24H0z" />
			<path d="M9 16.2L4.8 12l-1.4 1.4L9 19 21 7l-1.4-1.4L9 16.2z" />
		</svg>
		<svg id="autorenew" xmlns="http://www.w3.org/2000/svg" width="24" height="24" viewBox="0 0 24 24">
			<path d="M12 6v3l4-4-4-4v3c-4.42 0-8 3.58-8 8 0 1.57.46 3.03 1.24 4.26L6.7 14.8c-.45-.83-.7-1.79-.7-2.8 0-3.31 2.69-6 6-6zm6.76 1.74L17.3 9.2c.44.84.7 1.79.7 2.8 0 3.31-2.69 6-6 6v-3l-4 4 4 4v-3c4.42 0 8-3.58 8-8 0-1.57-.46-3.03-1.24-4.26z" />
			<path d="M0 0h24v24H0z" fill="none" />
		</svg>
		<svg id="undo" xmlns="http://www.w3.org/2000/svg" width="24" height="24" viewBox="0 0 24 24">
			<path d="M0 0h24v24H0z" fill="none" />
			<path d="M12.5 8c-2.65 0-5.05.99-6.9 2.6L2 7v9h9l-3.62-3.62c1.39-1.16 3.16-1.88 5.12-1.88 3.54 0 6.55 2.31 7.6 5.5l2.37-.78C21.08 11.03 17.15 8 12.5 8z" />
		</svg>
		<svg id="perm_identity" xmlns="http://www.w3.org/2000/svg" width="24" height="24" viewBox="0 0 24 24">
			<path d="M12 5.9c1.16 0 2.1.94 2.1 2.1s-.94 2.1-2.1 2.1S9.9 9.16 9.9 8s.94-2.1 2.1-2.1m0 9c2.97 0 6.1 1.46 6.1 2.1v1.1H5.9V17c0-.64 3.13-2.1 6.1-2.1M12 4C9.79 4 8 5.79 8 8s1.79 4 4 4 4-1.79 4-4-1.79-4-4-4zm0 9c-2.67 0-8 1.34-8 4v3h16v-3c0-2.66-5.33-4-8-4z" />
			<path d="M0 0h24v24H0z" fill="none" />
		</svg>
		<svg id="vpn_key" xmlns="http://www.w3.org/2000/svg" width="24" height="24" viewBox="0 0 24 24">
			<path d="M0 0h24v24H0z" fill="none" />
			<path d="M12.65 10C11.83 7.67 9.61 6 7 6c-3.31 0-6 2.69-6 6s2.69 6 6 6c2.61 0 4.83-1.67 5.65-4H17v4h4v-4h2v-4H12.65zM7 14c-1.1 0-2-.9-2-2s.9-2 2-2 2 .9 2 2-.9 2-2 2z" />
		</svg>
		<svg id="arrow_back" version="1.1" xmlns="http://www.w3.org/2000/svg" xmlns:xlink="http://www.w3.org/1999/xlink" x="0px" y="0px" width="24px" height="24px" viewBox="0 0 24 24" enable-background="new 0 0 24 24" xml:space="preserve">
			<g id="Bounding_Boxes">
				<path fill="none" d="M0,0h24v24H0V0z" />
			</g>
			<g id="Outline_1_">
				<path d="M20,11H7.83l5.59-5.59L12,4l-8,8l8,8l1.41-1.41L7.83,13H20V11z" />
			</g>
		</svg>
		<svg id="mail_outline" version="1.1" xmlns="http://www.w3.org/2000/svg" xmlns:xlink="http://www.w3.org/1999/xlink" x="0px" y="0px" width="24px" height="24px" viewBox="0 0 24 24" enable-background="new 0 0 24 24" xml:space="preserve">
			<g id="Bounding_Boxes">
				<g id="ui_x5F_spec_x5F_header_copy_2">
				</g>
				<path fill="none" d="M0,0h24v24H0V0z" />
			</g>
			<g id="Outline">
				<g id="ui_x5F_spec_x5F_header">
				</g>
				<path d="M20,4H4C2.9,4,2.01,4.9,2.01,6L2,18c0,1.1,0.9,2,2,2h16c1.1,0,2-0.9,2-2V6C22,4.9,21.1,4,20,4z M20,18H4V8l8,5l8-5V18z
		 M12,11L4,6h16L12,11z" />
			</g>
		</svg>
		<svg id="search" version="1.1" xmlns="http://www.w3.org/2000/svg" xmlns:xlink="http://www.w3.org/1999/xlink" x="0px" y="0px" width="24px" height="24px" viewBox="0 0 24 24" enable-background="new 0 0 24 24" xml:space="preserve">
			<g id="Bounding_Boxes">
				<g id="ui_x5F_spec_x5F_header_copy_3" display="none">
				</g>
				<path fill="none" d="M0,0h24v24H0V0z" />
			</g>
			<g id="Rounded" display="none">
				<g id="ui_x5F_spec_x5F_header_copy_5">
				</g>
				<path display="inline" d="M15.5,14h-0.79l-0.28-0.27c1.2-1.4,1.82-3.31,1.48-5.34c-0.47-2.78-2.79-5-5.59-5.34
		c-4.23-0.52-7.79,3.04-7.27,7.27c0.34,2.8,2.56,5.12,5.34,5.59c2.03,0.34,3.94-0.28,5.34-1.48L14,14.71v0.79l4.25,4.25
		c0.41,0.41,1.08,0.41,1.49,0l0,0c0.41-0.41,0.41-1.08,0-1.49L15.5,14z M9.5,14C7.01,14,5,11.99,5,9.5S7.01,5,9.5,5S14,7.01,14,9.5
		S11.99,14,9.5,14z" />
			</g>
			<g id="Sharp" display="none">
				<g id="ui_x5F_spec_x5F_header_copy_4">
				</g>
				<path display="inline" d="M15.5,14h-0.79l-0.28-0.27C15.41,12.59,16,11.11,16,9.5C16,5.91,13.09,3,9.5,3S3,5.91,3,9.5
		S5.91,16,9.5,16c1.61,0,3.09-0.59,4.23-1.57L14,14.71v0.79l5,4.99L20.49,19L15.5,14z M9.5,14C7.01,14,5,11.99,5,9.5S7.01,5,9.5,5
		S14,7.01,14,9.5S11.99,14,9.5,14z" />
			</g>
			<g id="Outline">
				<g id="ui_x5F_spec_x5F_header" display="none">
				</g>
				<path d="M15.5,14h-0.79l-0.28-0.27C15.41,12.59,16,11.11,16,9.5C16,5.91,13.09,3,9.5,3S3,5.91,3,9.5S5.91,16,9.5,16
		c1.61,0,3.09-0.59,4.23-1.57L14,14.71v0.79l5,4.99L20.49,19L15.5,14z M9.5,14C7.01,14,5,11.99,5,9.5S7.01,5,9.5,5S14,7.01,14,9.5
		S11.99,14,9.5,14z" />
			</g>
			<g id="Duotone" display="none">
				<g id="ui_x5F_spec_x5F_header_copy_2">
				</g>
				<g display="inline">
					<path d="M15.5,14h-0.79l-0.28-0.27C15.41,12.59,16,11.11,16,9.5C16,5.91,13.09,3,9.5,3S3,5.91,3,9.5C3,13.09,5.91,16,9.5,16
			c1.61,0,3.09-0.59,4.23-1.57L14,14.71v0.79l5,4.99L20.49,19L15.5,14z M9.5,14C7.01,14,5,11.99,5,9.5S7.01,5,9.5,5S14,7.01,14,9.5
			S11.99,14,9.5,14z" />
				</g>
			</g>
			<g id="Material" display="none">
				<g id="ui_x5F_spec_x5F_header_copy">
				</g>
				<path display="inline" d="M15.5,14h-0.79l-0.28-0.27C15.41,12.59,16,11.11,16,9.5C16,5.91,13.09,3,9.5,3S3,5.91,3,9.5
		S5.91,16,9.5,16c1.61,0,3.09-0.59,4.23-1.57L14,14.71v0.79l5,4.99L20.49,19L15.5,14z M9.5,14C7.01,14,5,11.99,5,9.5S7.01,5,9.5,5
		S14,7.01,14,9.5S11.99,14,9.5,14z" />
			</g>
		</svg>
		<svg id="error_outline" version="1.1" xmlns="http://www.w3.org/2000/svg" xmlns:xlink="http://www.w3.org/1999/xlink" x="0px" y="0px" width="24px" height="24px" viewBox="0 0 24 24" enable-background="new 0 0 24 24" xml:space="preserve">
			<g id="Bounding_Boxes" display="none">
				<g id="ui_x5F_spec_x5F_header_copy_3" display="inline">
				</g>
				<path display="inline" fill="none" d="M0,0h24v24H0V0z" />
			</g>
			<g id="Outline">
				<g id="ui_x5F_spec_x5F_header">
				</g>
				<path d="M11,15h2v2h-2V15z M11,7h2v6h-2V7z M11.99,2C6.47,2,2,6.48,2,12s4.47,10,9.99,10C17.52,22,22,17.52,22,12S17.52,2,11.99,2z
		 M12,20c-4.42,0-8-3.58-8-8s3.58-8,8-8s8,3.58,8,8S16.42,20,12,20z" />
			</g>
		</svg>
		<svg id="check_circle" version="1.1" xmlns="http://www.w3.org/2000/svg" xmlns:xlink="http://www.w3.org/1999/xlink" x="0px" y="0px" width="24px" height="24px" viewBox="0 0 24 24" enable-background="new 0 0 24 24" xml:space="preserve">
			<g id="Header_x2F_BG" display="none">
				<rect x="-182" y="-226" display="inline" fill="#F1F1F2" width="520" height="520" />
			</g>
			<g id="Bounding_Boxes">
				<g id="ui_x5F_spec_x5F_header_copy_3">
				</g>
				<path fill="none" d="M0,0h24v24H0V0z" />
			</g>
			<g id="Rounded" display="none">
				<g id="ui_x5F_spec_x5F_header_copy_5" display="inline">
				</g>
				<path display="inline" d="M12,2C6.48,2,2,6.48,2,12s4.48,10,10,10s10-4.48,10-10S17.52,2,12,2z M9.29,16.29l-3.59-3.59
		c-0.39-0.39-0.39-1.02,0-1.41l0,0c0.39-0.39,1.02-0.39,1.41,0L10,14.17l6.88-6.88c0.39-0.39,1.02-0.39,1.41,0l0,0
		c0.39,0.39,0.39,1.02,0,1.41l-7.59,7.59C10.32,16.68,9.68,16.68,9.29,16.29z" />
			</g>
			<g id="Sharp" display="none">
				<g id="ui_x5F_spec_x5F_header_copy_4" display="inline">
				</g>
				<path display="inline" d="M12,2C6.48,2,2,6.48,2,12s4.48,10,10,10s10-4.48,10-10S17.52,2,12,2z M10,17l-5-5l1.41-1.41L10,14.17
		l7.59-7.59L19,8L10,17z" />
			</g>
			<g id="Outline">
				<g id="ui_x5F_spec_x5F_header">
				</g>
				<g>
					<path d="M12,2C6.48,2,2,6.48,2,12s4.48,10,10,10s10-4.48,10-10S17.52,2,12,2z M12,20c-4.41,0-8-3.59-8-8s3.59-8,8-8s8,3.59,8,8
			S16.41,20,12,20z" />
					<polygon points="16.59,7.58 10,14.17 7.41,11.59 6,13 10,17 18,9 		" />
				</g>
			</g>
			<g id="Duotone" display="none">
				<g id="ui_x5F_spec_x5F_header_copy_2" display="inline">
				</g>
				<g display="inline">
					<path opacity="0.3" d="M12,4c-4.41,0-8,3.59-8,8s3.59,8,8,8c4.41,0,8-3.59,8-8S16.41,4,12,4z M10,17l-4-4l1.41-1.41L10,14.17
			l6.59-6.59L18,9L10,17z" />
					<path d="M12,2C6.48,2,2,6.48,2,12s4.48,10,10,10c5.52,0,10-4.48,10-10S17.52,2,12,2z M12,20c-4.41,0-8-3.59-8-8s3.59-8,8-8
			c4.41,0,8,3.59,8,8S16.41,20,12,20z" />
					<polygon points="16.59,7.58 10,14.17 7.41,11.59 6,13 10,17 18,9 		" />
				</g>
			</g>
			<g id="Fill" display="none">
				<g id="ui_x5F_spec_x5F_header_copy" display="inline">
				</g>
				<path display="inline" d="M12,2C6.48,2,2,6.48,2,12s4.48,10,10,10s10-4.48,10-10S17.52,2,12,2z M10,17l-5-5l1.41-1.41L10,14.17
		l7.59-7.59L19,8L10,17z" />
			</g>
			<g id="nyt_x5F_exporter_x5F_info" display="none">
			</g>
		</svg>
		<svg id="info_outline" version="1.1" xmlns="http://www.w3.org/2000/svg" xmlns:xlink="http://www.w3.org/1999/xlink" x="0px" y="0px" width="24px" height="24px" viewBox="0 0 24 24" enable-background="new 0 0 24 24" xml:space="preserve">
			<g id="Bounding_Boxes">
				<g id="ui_x5F_spec_x5F_header_copy_3" display="none">
				</g>
				<path fill="none" d="M0,0h24v24H0V0z" />
			</g>
			<g id="Rounded" display="none">
				<g id="ui_x5F_spec_x5F_header_copy_5">
				</g>
				<g display="inline">
					<path d="M12,2C6.48,2,2,6.48,2,12c0,5.52,4.48,10,10,10s10-4.48,10-10C22,6.48,17.52,2,12,2z M12,17L12,17c-0.55,0-1-0.45-1-1v-4
			c0-0.55,0.45-1,1-1h0c0.55,0,1,0.45,1,1v4C13,16.55,12.55,17,12,17z M13,9h-2V7h2V9z" />
				</g>
			</g>
			<g id="Sharp" display="none">
				<g id="ui_x5F_spec_x5F_header_copy_4">
				</g>
				<g display="inline">
					<path d="M12,2C6.48,2,2,6.48,2,12c0,5.52,4.48,10,10,10s10-4.48,10-10C22,6.48,17.52,2,12,2z M13,17h-2v-6h2V17z M13,9h-2V7h2V9z" />
				</g>
			</g>
			<g id="Outline">
				<g id="ui_x5F_spec_x5F_header" display="none">
				</g>
				<g>
					<rect x="11" y="7" width="2" height="2" />
					<rect x="11" y="11" width="2" height="6" />
					<path d="M12,2C6.48,2,2,6.48,2,12c0,5.52,4.48,10,10,10s10-4.48,10-10C22,6.48,17.52,2,12,2z M12,20c-4.41,0-8-3.59-8-8
			c0-4.41,3.59-8,8-8s8,3.59,8,8C20,16.41,16.41,20,12,20z" />
				</g>
			</g>
			<g id="Duotone" display="none">
				<g id="ui_x5F_spec_x5F_header_copy_2">
				</g>
				<g display="inline">
					<path opacity="0.3" d="M12,4c-4.41,0-8,3.59-8,8c0,4.41,3.59,8,8,8s8-3.59,8-8C20,7.59,16.41,4,12,4z M13,17h-2v-6h2V17z M13,9h-2
			V7h2V9z" />
					<rect x="11" y="7" width="2" height="2" />
					<rect x="11" y="11" width="2" height="6" />
					<path d="M12,2C6.48,2,2,6.48,2,12c0,5.52,4.48,10,10,10s10-4.48,10-10C22,6.48,17.52,2,12,2z M12,20c-4.41,0-8-3.59-8-8
			c0-4.41,3.59-8,8-8s8,3.59,8,8C20,16.41,16.41,20,12,20z" />
				</g>
			</g>
			<g id="Material" display="none">
				<g id="ui_x5F_spec_x5F_header_copy">
				</g>
				<g display="inline">
					<path d="M12,2C6.48,2,2,6.48,2,12c0,5.52,4.48,10,10,10s10-4.48,10-10C22,6.48,17.52,2,12,2z M13,17h-2v-6h2V17z M13,9h-2V7h2V9z" />
				</g>
			</g>
		</svg>
		<svg id="close" xmlns="http://www.w3.org/2000/svg" width="24" height="24" viewBox="0 0 24 24">
			<path d="M19 6.41L17.59 5 12 10.59 6.41 5 5 6.41 10.59 12 5 17.59 6.41 19 12 13.41 17.59 19 19 17.59 13.41 12z" />
			<path d="M0 0h24v24H0z" fill="none" />
		</svg>
	</defs>
</svg>
